COVER ::


SCREEN :: 
http://i.minus.com/iwJpnT2m5A1w6.png
 
http://i.minus.com/ibi47Pv6OIpyI8.png
 
http://i.minus.com/iuDa5bzA7jnbQ.png
 
http://i.minus.com/ibtlIjjJ1WzLdo.png
 
http://i.minus.com/icCM4RyYkMWXS.png
 
http://i.minus.com/ibLuwmwzBC4g9.png
 
http://i.minus.com/inHYuB2dCKrfI.png
 
http://i.minus.com/ivhQXmdnfMaMF.png
 
http://i.minus.com/ibuWE0vSlU6rGF.png


General ::
Format                           : AVI
Format/Info                      : Audio Video Interleave
File size                        : 63.5 MiB
Duration                         : 3mn 58s
Overall bit rate                 : 2 231 Kbps


Video Info ::
Format                           : AVC
Format/Info                      : Advanced Video Codec
Format profile                   : High@L5.1
Format settings, CABAC           : Yes
Format settings, ReFrames        : 2 frames
Codec ID                         : H264
Duration                         : 10s 0ms
Bit rate                         : 2 028 Kbps
Width                            : 1 280 pixels
Height                           : 544 pixels
Display aspect ratio             : 2.35:1
Frame rate                       : 30.000 fps
Color space                      : YUV
Chroma subsampling               : 4:2:0
Bit depth                        : 8 bits
Scan type                        : Progressive
Bits/(Pixel*Frame)               : 0.097
Stream size                      : 57.7 MiB (91%)


Audio Info ::
ID                               : 1
Format                           : MPEG Audio
Format version                   : Version 1
Format profile                   : Layer 3
Codec ID                         : 55
Codec ID/Hint                    : MP3
Duration                         : 3mn 58s
Bit rate mode                    : Constant
Bit rate                         : 192 Kbps
Channel(s)                       : 2 channels
Sampling rate                    : 44.1 KHz
Compression mode                 : Lossy
Stream size                      : 5.46 MiB (9%)